<svg xmlns="http://www.w3.org/2000/svg" width="400" height="400" viewBox="0 0 400 400">
  <rect width="400" height="400" fill="transparent"/>
  <g fill="#ffffff">
    <circle cx="23" cy="15" r="0.6" opacity="0.4"/>
    <circle cx="87" cy="42" r="0.8" opacity="0.6"/>
    <circle cx="156" cy="8" r="0.5" opacity="0.3"/>
    <circle cx="234" cy="35" r="0.7" opacity="0.5"/>
    <circle cx="312" cy="19" r="0.6" opacity="0.35"/>
    <circle cx="378" cy="52" r="0.9" opacity="0.5"/>
    <circle cx="45" cy="78" r="0.5" opacity="0.25"/>
    <circle cx="134" cy="95" r="1.0" opacity="0.6"/>
    <circle cx="198" cy="72" r="0.4" opacity="0.3"/>
    <circle cx="267" cy="88" r="0.7" opacity="0.45"/>
    <circle cx="345" cy="101" r="0.5" opacity="0.35"/>
    <circle cx="12" cy="134" r="0.8" opacity="0.5"/>
    <circle cx="78" cy="156" r="0.6" opacity="0.4"/>
    <circle cx="167" cy="142" r="0.5" opacity="0.3"/>
    <circle cx="245" cy="168" r="0.9" opacity="0.55"/>
    <circle cx="298" cy="145" r="0.4" opacity="0.25"/>
    <circle cx="367" cy="162" r="0.7" opacity="0.4"/>
    <circle cx="56" cy="198" r="0.7" opacity="0.45"/>
    <circle cx="112" cy="215" r="0.5" opacity="0.3"/>
    <circle cx="189" cy="205" r="0.8" opacity="0.5"/>
    <circle cx="256" cy="228" r="0.6" opacity="0.35"/>
    <circle cx="334" cy="212" r="0.5" opacity="0.3"/>
    <circle cx="390" cy="235" r="0.9" opacity="0.5"/>
    <circle cx="34" cy="267" r="0.6" opacity="0.4"/>
    <circle cx="98" cy="278" r="0.4" opacity="0.25"/>
    <circle cx="178" cy="258" r="0.7" opacity="0.45"/>
    <circle cx="223" cy="289" r="0.5" opacity="0.3"/>
    <circle cx="312" cy="272" r="0.8" opacity="0.5"/>
    <circle cx="356" cy="295" r="0.6" opacity="0.35"/>
    <circle cx="15" cy="328" r="0.5" opacity="0.3"/>
    <circle cx="67" cy="345" r="0.9" opacity="0.55"/>
    <circle cx="145" cy="332" r="0.6" opacity="0.4"/>
    <circle cx="212" cy="358" r="0.7" opacity="0.45"/>
    <circle cx="278" cy="342" r="0.5" opacity="0.3"/>
    <circle cx="348" cy="365" r="0.8" opacity="0.5"/>
    <circle cx="398" cy="338" r="0.4" opacity="0.25"/>
    <circle cx="52" cy="388" r="0.7" opacity="0.4"/>
    <circle cx="123" cy="378" r="0.5" opacity="0.3"/>
    <circle cx="198" cy="392" r="0.6" opacity="0.35"/>
    <circle cx="289" cy="385" r="0.8" opacity="0.5"/>
    <circle cx="365" cy="395" r="0.5" opacity="0.3"/>
  </g>
</svg>
