<svg viewBox="0 0 400 400" width="400" height="400" xmlns="http://www.w3.org/2000/svg">
  <!-- Transparent background -->
  <rect width="400" height="400" fill="transparent"/>

  <!-- Starfield -->
  <g fill="#ffffff">
    <circle cx="23.5" cy="42.1" r="0.7" opacity="0.35"/>
    <circle cx="156.8" cy="18.4" r="0.5" opacity="0.48"/>
    <circle cx="289.2" cy="76.3" r="0.6" opacity="0.28"/>
    <circle cx="45.7" cy="92.5" r="0.8" opacity="0.52"/>
    <circle cx="312.4" cy="15.7" r="0.4" opacity="0.25"/>
    <circle cx="78.3" cy="138.2" r="0.9" opacity="0.45"/>
    <circle cx="198.6" cy="52.8" r="0.5" opacity="0.38"/>
    <circle cx="334.1" cy="95.6" r="0.7" opacity="0.33"/>
    <circle cx="12.4" cy="167.3" r="0.6" opacity="0.42"/>
    <circle cx="267.5" cy="41.2" r="0.8" opacity="0.55"/>
    <circle cx="89.7" cy="34.6" r="0.4" opacity="0.27"/>
    <circle cx="145.2" cy="198.9" r="0.9" opacity="0.48"/>
    <circle cx="356.8" cy="162.4" r="0.5" opacity="0.31"/>
    <circle cx="67.3" cy="245.1" r="0.7" opacity="0.44"/>
    <circle cx="223.4" cy="128.7" r="0.6" opacity="0.36"/>
    <circle cx="302.9" cy="218.5" r="1.0" opacity="0.52"/>
    <circle cx="38.6" cy="301.2" r="0.5" opacity="0.29"/>
    <circle cx="178.1" cy="267.8" r="0.8" opacity="0.50"/>
    <circle cx="241.5" cy="342.3" r="0.6" opacity="0.39"/>
    <circle cx="124.7" cy="76.4" r="0.7" opacity="0.46"/>
    <circle cx="287.3" cy="289.1" r="0.4" opacity="0.26"/>
    <circle cx="356.2" cy="301.7" r="0.9" opacity="0.54"/>
    <circle cx="42.8" cy="156.3" r="0.5" opacity="0.37"/>
    <circle cx="195.6" cy="311.2" r="0.7" opacity="0.43"/>
    <circle cx="318.4" cy="251.8" r="0.6" opacity="0.34"/>
    <circle cx="81.2" cy="382.5" r="0.8" opacity="0.49"/>
    <circle cx="268.7" cy="175.4" r="0.5" opacity="0.32"/>
    <circle cx="34.1" cy="234.7" r="1.0" opacity="0.56"/>
    <circle cx="156.3" cy="91.2" r="0.6" opacity="0.41"/>
    <circle cx="375.8" cy="128.3" r="0.4" opacity="0.28"/>
    <circle cx="112.5" cy="325.6" r="0.9" opacity="0.51"/>
    <circle cx="237.8" cy="45.9" r="0.7" opacity="0.38"/>
    <circle cx="293.2" cy="356.1" r="0.5" opacity="0.30"/>
    <circle cx="61.4" cy="368.2" r="0.8" opacity="0.47"/>
    <circle cx="171.9" cy="143.5" r="0.6" opacity="0.40"/>
    <circle cx="348.7" cy="212.6" r="0.7" opacity="0.53"/>
    <circle cx="19.3" cy="98.7" r="0.5" opacity="0.35"/>
    <circle cx="276.5" cy="127.3" r="0.9" opacity="0.44"/>
    <circle cx="134.8" cy="246.2" r="0.6" opacity="0.29"/>
    <circle cx="234.1" cy="188.4" r="0.4" opacity="0.37"/>
    <circle cx="97.6" cy="261.3" r="0.8" opacity="0.50"/>
    <circle cx="312.3" cy="64.5" r="0.7" opacity="0.32"/>
    <circle cx="52.2" cy="310.8" r="0.5" opacity="0.42"/>
    <circle cx="185.4" cy="22.1" r="1.0" opacity="0.55"/>
    <circle cx="269.8" cy="298.7" r="0.6" opacity="0.36"/>
    <circle cx="125.6" cy="168.9" r="0.7" opacity="0.48"/>
    <circle cx="373.2" cy="356.4" r="0.4" opacity="0.26"/>
    <circle cx="46.7" cy="71.2" r="0.9" opacity="0.51"/>
    <circle cx="211.3" cy="334.5" r="0.5" opacity="0.39"/>
    <circle cx="298.5" cy="142.8" r="0.8" opacity="0.45"/>
    <circle cx="74.1" cy="197.6" r="0.6" opacity="0.33"/>
    <circle cx="162.8" cy="277.3" r="0.7" opacity="0.47"/>
    <circle cx="325.7" cy="89.2" r="0.5" opacity="0.31"/>
    <circle cx="88.4" cy="314.1" r="1.0" opacity="0.54"/>
    <circle cx="245.3" cy="256.8" r="0.6" opacity="0.38"/>
    <circle cx="17.8" cy="212.4" r="0.4" opacity="0.28"/>
    <circle cx="177.6" cy="185.2" r="0.8" opacity="0.52"/>
    <circle cx="341.2" cy="32.5" r="0.7" opacity="0.40"/>
    <circle cx="69.5" cy="107.3" r="0.5" opacity="0.43"/>
    <circle cx="220.8" cy="68.9" r="0.9" opacity="0.49"/>
    <circle cx="306.4" cy="332.1" r="0.6" opacity="0.35"/>
    <circle cx="133.7" cy="34.5" r="0.7" opacity="0.44"/>
    <circle cx="283.1" cy="219.7" r="0.5" opacity="0.30"/>
    <circle cx="55.3" cy="144.2" r="0.8" opacity="0.51"/>
    <circle cx="192.7" cy="239.6" r="0.4" opacity="0.37"/>
    <circle cx="361.5" cy="167.8" r="1.0" opacity="0.56"/>
    <circle cx="107.9" cy="87.3" r="0.6" opacity="0.32"/>
    <circle cx="254.6" cy="301.5" r="0.7" opacity="0.46"/>
    <circle cx="28.2" cy="267.4" r="0.5" opacity="0.41"/>
    <circle cx="180.4" cy="52.3" r="0.9" opacity="0.48"/>
    <circle cx="320.8" cy="268.3" r="0.6" opacity="0.34"/>
    <circle cx="93.1" cy="371.2" r="0.8" opacity="0.50"/>
    <circle cx="227.3" cy="154.7" r="0.7" opacity="0.39"/>
    <circle cx="35.7" cy="123.8" r="0.4" opacity="0.27"/>
    <circle cx="168.5" cy="315.6" r="0.5" opacity="0.45"/>
    <circle cx="289.4" cy="95.1" r="1.0" opacity="0.53"/>
    <circle cx="76.8" cy="236.2" r="0.6" opacity="0.36"/>
    <circle cx="215.2" cy="203.4" r="0.7" opacity="0.47"/>
    <circle cx="340.3" cy="126.5" r="0.5" opacity="0.31"/>
    <circle cx="12.1" cy="291.3" r="0.9" opacity="0.52"/>
    <circle cx="256.7" cy="17.2" r="0.6" opacity="0.38"/>
    <circle cx="147.3" cy="142.8" r="0.8" opacity="0.44"/>
    <circle cx="299.6" cy="199.7" r="0.7" opacity="0.32"/>
    <circle cx="51.9" cy="58.4" r="0.4" opacity="0.43"/>
    <circle cx="184.2" cy="279.1" r="0.5" opacity="0.40"/>
    <circle cx="365.8" cy="234.6" r="1.0" opacity="0.55"/>
    <circle cx="138.4" cy="205.3" r="0.6" opacity="0.29"/>
    <circle cx="273.1" cy="334.2" r="0.7" opacity="0.49"/>
    <circle cx="22.6" cy="176.8" r="0.5" opacity="0.37"/>
    <circle cx="203.7" cy="89.5" r="0.8" opacity="0.51"/>
    <circle cx="331.5" cy="309.8" r="0.6" opacity="0.35"/>
    <circle cx="80.3" cy="251.1" r="0.9" opacity="0.46"/>
    <circle cx="240.5" cy="122.3" r="0.7" opacity="0.33"/>
    <circle cx="158.2" cy="358.7" r="0.4" opacity="0.42"/>
    <circle cx="315.7" cy="177.2" r="0.5" opacity="0.39"/>
    <circle cx="64.8" cy="75.6" r="1.0" opacity="0.54"/>
    <circle cx="189.3" cy="132.1" r="0.6" opacity="0.31"/>
    <circle cx="372.1" cy="284.3" r="0.7" opacity="0.48"/>
    <circle cx="29.7" cy="328.5" r="0.5" opacity="0.36"/>
    <circle cx="226.4" cy="261.8" r="0.8" opacity="0.45"/>
    <circle cx="303.2" cy="23.4" r="0.6" opacity="0.28"/>
    <circle cx="117.6" cy="195.7" r="0.7" opacity="0.52"/>
    <circle cx="263.8" cy="86.2" r="0.4" opacity="0.34"/>
    <circle cx="37.4" cy="211.3" r="0.9" opacity="0.50"/>
    <circle cx="173.7" cy="319.4" r="0.5" opacity="0.38"/>
    <circle cx="350.6" cy="142.1" r="1.0" opacity="0.56"/>
    <circle cx="94.2" cy="18.7" r="0.6" opacity="0.30"/>
    <circle cx="231.9" cy="371.2" r="0.7" opacity="0.47"/>
    <circle cx="267.3" cy="208.6" r="0.5" opacity="0.41"/>
    <circle cx="40.8" cy="289.2" r="0.8" opacity="0.43"/>
    <circle cx="182.5" cy="95.3" r="0.6" opacity="0.35"/>
    <circle cx="334.7" cy="213.7" r="0.7" opacity="0.49"/>
    <circle cx="71.1" cy="151.4" r="0.4" opacity="0.32"/>
    <circle cx="218.6" cy="34.8" r="0.9" opacity="0.51"/>
    <circle cx="287.4" cy="267.1" r="0.5" opacity="0.39"/>
    <circle cx="14.3" cy="127.2" r="1.0" opacity="0.55"/>
    <circle cx="161.2" cy="223.5" r="0.6" opacity="0.36"/>
    <circle cx="312.8" cy="352.6" r="0.7" opacity="0.46"/>
    <circle cx="82.7" cy="64.8" r="0.5" opacity="0.33"/>
    <circle cx="243.1" cy="178.9" r="0.8" opacity="0.48"/>
    <circle cx="346.3" cy="261.2" r="0.6" opacity="0.30"/>
    <circle cx="49.6" cy="328.7" r="0.7" opacity="0.44"/>
    <circle cx="197.8" cy="148.3" r="0.4" opacity="0.41"/>
    <circle cx="274.5" cy="11.4" r="0.9" opacity="0.52"/>
    <circle cx="128.2" cy="281.6" r="0.5" opacity="0.37"/>
    <circle cx="321.4" cy="96.8" r="1.0" opacity="0.54"/>
    <circle cx="53.8" cy="205.1" r="0.6" opacity="0.34"/>
    <circle cx="176.3" cy="361.7" r="0.7" opacity="0.47"/>
    <circle cx="296.7" cy="134.2" r="0.5" opacity="0.38"/>
    <circle cx="20.5" cy="354.3" r="0.8" opacity="0.50"/>
    <circle cx="252.4" cy="229.5" r="0.6" opacity="0.31"/>
    <circle cx="365.1" cy="45.2" r="0.7" opacity="0.49"/>
    <circle cx="106.3" cy="268.3" r="0.4" opacity="0.35"/>
    <circle cx="222.7" cy="291.8" r="0.9" opacity="0.53"/>
    <circle cx="60.1" cy="29.7" r="0.5" opacity="0.40"/>
    <circle cx="174.9" cy="74.2" r="1.0" opacity="0.56"/>
    <circle cx="313.5" cy="319.1" r="0.6" opacity="0.32"/>
    <circle cx="86.2" cy="118.5" r="0.7" opacity="0.46"/>
    <circle cx="235.8" cy="225.4" r="0.5" opacity="0.39"/>
    <circle cx="33.9" cy="376.8" r="0.8" opacity="0.44"/>
    <circle cx="191.4" cy="172.7" r="0.6" opacity="0.29"/>
    <circle cx="362.7" cy="88.3" r="0.7" opacity="0.51"/>
    <circle cx="69.3" cy="283.6" r="0.4" opacity="0.37"/>
    <circle cx="248.6" cy="112.3" r="0.9" opacity="0.48"/>
    <circle cx="142.8" cy="341.2" r="0.5" opacity="0.33"/>
    <circle cx="283.9" cy="243.7" r="1.0" opacity="0.55"/>
    <circle cx="109.3" cy="256.4" r="0.6" opacity="0.42"/>
    <circle cx="257.1" cy="73.8" r="0.7" opacity="0.50"/>
    <circle cx="8.7" cy="50.2" r="0.5" opacity="0.34"/>
    <circle cx="366.2" cy="324.5" r="0.8" opacity="0.47"/>
    <circle cx="139.5" cy="289.3" r="0.4" opacity="0.31"/>
    <circle cx="299.4" cy="51.6" r="0.9" opacity="0.54"/>
    <circle cx="44.1" cy="382.1" r="0.6" opacity="0.40"/>
    <circle cx="205.8" cy="148.7" r="0.7" opacity="0.45"/>
    <circle cx="352.3" cy="189.2" r="0.5" opacity="0.36"/>
    <circle cx="72.6" cy="31.5" r="1.0" opacity="0.53"/>
    <circle cx="244.7" cy="310.6" r="0.6" opacity="0.43"/>
    <circle cx="165.4" cy="11.3" r="0.7" opacity="0.38"/>
    <circle cx="315.9" cy="129.8" r="0.4" opacity="0.29"/>
    <circle cx="41.2" cy="122.5" r="0.8" opacity="0.51"/>
    <circle cx="268.3" cy="356.9" r="0.5" opacity="0.44"/>
  </g>
</svg>
